<?xml version="1.0" encoding="utf-8"?> <!-- Generator: IcoMoon.io --> <!DOCTYPE svg PUBLIC "-//W3C//DTD SVG 1.1//EN" "http://www.w3.org/Graphics/SVG/1.1/DTD/svg11.dtd"> <svg width="201.3625030517578" height="201.3625030517578" viewBox="0 0 201.3625030517578 201.3625030517578" xmlns="http://www.w3.org/2000/svg" xmlns:xlink="http://www.w3.org/1999/xlink" fill="#00dffc"><g><path d="M 195.438,173.663l-36.112-36.112c 9.9-14.175, 15.75-31.388, 15.75-49.988 c0-48.325-39.188-87.5-87.5-87.5s-87.5,39.175-87.5,87.5c0,48.325, 39.175,87.5, 87.5,87.5c 18.6,0, 35.825-5.85, 50-15.75l 36.112,36.112c 6,6, 15.75,6, 21.75,0 S 201.437,179.688, 195.438,173.663z M 87.563,150.075c-34.513,0-62.5-27.975-62.5-62.5c0-34.525, 27.987-62.5, 62.5-62.5c 34.525,0, 62.5,27.975, 62.5,62.5 C 150.075,122.1, 122.1,150.075, 87.563,150.075z"></path></g></svg>