<?xml version="1.0" encoding="utf-8"?>
<!-- Generator: Adobe Illustrator 16.0.0, SVG Export Plug-In . SVG Version: 6.00 Build 0)  -->
<!DOCTYPE svg PUBLIC "-//W3C//DTD SVG 1.1//EN" "http://www.w3.org/Graphics/SVG/1.1/DTD/svg11.dtd">
<svg version="1.1" id="Layer_1" xmlns="http://www.w3.org/2000/svg" xmlns:xlink="http://www.w3.org/1999/xlink" x="0px" y="0px"
	 width="267px" height="266.989px" viewBox="0 0 267 266.989" enable-background="new 0 0 267 266.989" xml:space="preserve">
<rect x="3.667" y="3.664" fill="none" stroke="#58595B" stroke-width="7" stroke-miterlimit="10" width="260" height="260"/>
<rect x="33.667" y="31.664" fill="none" width="200" height="200"/>
<line fill="#58595B" stroke="#58595B" stroke-width="3" stroke-miterlimit="10" x1="233.667" y1="31.664" x2="33.667" y2="231.664"/>
<line fill="#58595B" stroke="#58595B" stroke-width="7" stroke-miterlimit="10" x1="33.667" y1="31.664" x2="233.667" y2="231.664"/>
<g>
	<path fill="#58595B" stroke="#58595B" stroke-miterlimit="10" d="M47.379,154.778v-38.495c0.513-0.055,1.083-0.11,1.71-0.11v38.605
		H47.379z M50.8,117.768v-1.649h0.969c12.884,0,19.325,6.489,19.325,12.868c0,6.434-6.441,12.813-19.325,12.813H50.8v-1.649h0.969
		c11.744,0,17.615-5.554,17.615-11.164s-5.872-11.219-17.615-11.219H50.8z"/>
</g>
<g>
	<path fill="#58595B" stroke="#58595B" stroke-miterlimit="10" d="M132.878,48.388l-11.02,32.666l-1.377-0.55l11.61-34.425
		L132.878,48.388z M132.878,43.713l0.787-2.365l13.184,39.155l-1.377,0.55l-3.591-10.668h-14.857l0.542-1.65h13.725L132.878,43.713z
		"/>
</g>
<g>
	<path fill="#58595B" stroke="#58595B" stroke-miterlimit="10" d="M184.664,119.168l38.495-0.163
		c0.057,0.567,0.113,1.197,0.115,1.89l-38.604,0.164L184.664,119.168z M221.685,122.793l1.65-0.007l0.004,1.072
		c0.046,14.246-6.421,21.396-12.8,21.423c-6.435,0.027-12.836-7.069-12.882-21.314l-0.004-1.072l1.649-0.007l0.004,1.072
		c0.042,12.985,5.617,19.454,11.227,19.43c5.608-0.023,11.197-6.54,11.155-19.525L221.685,122.793z"/>
</g>
<g>
	<path fill="#58595B" stroke="#58595B" stroke-miterlimit="10" d="M122.385,221.445V182.95c0.5,0,1.112-0.055,1.667-0.11v38.605
		H122.385z M125.72,184.435v-1.649h0.945c12.563,0,18.844,6.489,18.844,12.868c0,4.674-3.28,9.293-9.783,11.494l10.617,13.803
		l-1.334,0.99l-11.006-14.298c-2.112,0.55-4.614,0.825-7.337,0.825h-0.945v-1.649h0.945c11.451,0,17.177-5.554,17.177-11.164
		s-5.726-11.219-17.177-11.219H125.72z"/>
</g>
</svg>
